<?xml version="1.0" encoding="utf-8"?>
<!-- Generator: Adobe Illustrator 24.3.0, SVG Export Plug-In . SVG Version: 6.00 Build 0)  -->
<svg version="1.1" id="Capa_1" xmlns="http://www.w3.org/2000/svg" xmlns:xlink="http://www.w3.org/1999/xlink" x="0px" y="0px"
	 viewBox="0 0 486.5 486.5" style="enable-background:new 0 0 486.5 486.5;" xml:space="preserve">
<style type="text/css">
	.st0{fill:#E2E2E2;}
</style>
<g>
	<g id="XMLID_1812_">
		<path id="XMLID_1906_" class="st0" d="M20.1,142.4l22.4,10.5c-5.4,21-6.6,43.2-3,65.5l-23.2,8.4C7.6,230,3.1,239.6,6.2,248.4
			l8.9,24.4c3.2,8.7,12.8,13.2,21.6,10.1l23.2-8.4c11.5,19.4,26.7,35.7,44.3,48.3l-10.5,22.4c-3.9,8.4-0.3,18.4,8.1,22.4l23.6,11
			c8.4,3.9,18.4,0.3,22.4-8.1l10.5-22.5c15.5,3.9,31.7,5.6,48.1,4.6l0.3-6.5c0.4-9.2,4.4-17.7,11.2-23.9c6.1-5.6,13.9-8.8,22.2-9
			c1.4-3.5,3-6.9,4.8-10.3c-2.2-2.8-3.9-5.9-5.1-9.2c-9.1,3.7-18.8,6.3-29,7.5c-59.9,7-114.1-35.8-121.1-95.7s35.8-114.1,95.7-121.1
			s114.1,35.8,121.1,95.7c2.4,20.8-1.1,40.9-9.4,58.6c3.9,1.6,7.4,3.9,10.5,6.8c3.5-1.4,7-2.7,10.7-3.9
			c2.1-17.7,17.6-31.1,35.7-30.3l2.4,0.1c1.7-14.5,1.4-29.3-1-44.1l24.2-8.8c8.7-3.2,13.2-12.8,10.1-21.6l-8.9-24.4
			c-3.2-8.7-12.8-13.2-21.6-10.1l-24.2,8.8c-11.3-19.1-26.3-35.3-43.7-47.8l10.9-23.2c3.9-8.4,0.3-18.4-8.1-22.4l-23.6-11
			c-8.4-3.9-18.4-0.3-22.4,8.1L237.3,38c-20.8-5.4-42.9-6.6-64.9-3.1l-8.6-23.8C160.6,2.4,151-2.1,142.2,1l-24.4,8.9
			c-8.7,3.2-13.2,12.8-10.1,21.6l8.6,23.6C97,66.5,80.6,81.5,68,99L45.5,88.5c-8.4-3.9-18.4-0.3-22.4,8.1l-11,23.6
			C8,128.4,11.6,138.4,20.1,142.4z"/>
		<path id="XMLID_1868_" class="st0" d="M379.3,246.8c0-0.2,0-0.3,0-0.5c0-5.6-4.4-10.3-10.1-10.6l-16.4-0.7
			c-5.9-0.3-10.8,4.3-11.1,10.1l-0.7,15.6c-13.5,1.9-26.8,6.6-38.8,14l-10.5-11.5c-4-4.3-10.7-4.6-15-0.7l-12.1,11.1
			c-2.3,2.1-3.4,5-3.4,7.8c0,2.6,0.9,5.1,2.8,7.2l10.5,11.5c-8.5,11.3-14.3,24.1-17.4,37.4l-15.6-0.7c-5.9-0.3-10.8,4.3-11.1,10.1
			l-0.7,16.4c0,0.2,0,0.3,0,0.5c0,5.6,4.4,10.3,10.1,10.6l15.7,0.7c2,13.5,6.7,26.7,14.2,38.6L258,424.4c-2.3,2.1-3.4,5-3.4,7.8
			c0,2.6,0.9,5.1,2.8,7.2l11.1,12.1c4,4.3,10.7,4.6,15,0.7l11.8-10.8c11.3,8.4,24,14.1,37.2,17.2l-0.7,16.1c0,0.2,0,0.3,0,0.5
			c0,5.6,4.4,10.3,10.1,10.6l16.4,0.7c5.9,0.3,10.8-4.3,11.1-10.1l0.7-16.1c13.4-1.9,26.4-6.6,38.3-14l10.9,12
			c4,4.3,10.7,4.6,15,0.7l12.1-11.1c2.3-2.1,3.4-5,3.4-7.8c0-2.6-0.9-5.1-2.8-7.2l-10.9-12c8.4-11.2,14.2-23.8,17.3-37l16.1,0.7
			c5.9,0.3,10.8-4.3,11.1-10.1l0.7-16.4c0-0.2,0-0.3,0-0.5c0-5.6-4.4-10.3-10.1-10.6l-16.1-0.7c-1.9-13.4-6.5-26.6-13.9-38.5
			L453,297c2.3-2.1,3.4-5,3.4-7.8c0-2.6-0.9-5.1-2.8-7.2l-11.1-12.1c-4-4.3-10.7-4.6-15-0.7l-11.7,10.7c-11.3-8.5-24-14.4-37.2-17.5
			L379.3,246.8z M395.8,323.9c9.6,10.5,14.3,23.7,14.3,36.9c0,14.8-6,29.6-17.8,40.3c-22.3,20.4-56.8,18.8-77.2-3.4
			c-9.6-10.5-14.3-23.7-14.3-36.9c0-14.8,6-29.6,17.8-40.3C340.8,300.1,375.4,301.6,395.8,323.9z"/>
		<path id="XMLID_1827_" class="st0" d="M197.9,111.7c-44.7,0-81,36.3-81,81s36.3,81,81,81s81-36.3,81-81S242.6,111.7,197.9,111.7z
			 M197.9,166.3c-14.6,0-26.4,11.8-26.4,26.4c0,6.7-5.4,12.1-12.1,12.1c-6.7,0-12.1-5.4-12.1-12.1c0-27.9,22.7-50.6,50.6-50.6
			c6.7,0,12.1,5.4,12.1,12.1S204.5,166.3,197.9,166.3z"/>
	</g>
</g>
</svg>
